<?xml version="1.0" encoding="iso-8859-1"?>
<!-- Generator: Adobe Illustrator 23.0.0, SVG Export Plug-In . SVG Version: 6.00 Build 0)  -->
<svg version="1.1" id="&#x56FE;&#x5C42;_1" xmlns="http://www.w3.org/2000/svg" xmlns:xlink="http://www.w3.org/1999/xlink" x="0px"
	 y="0px" viewBox="0 0 750 960" style="enable-background:new 0 0 750 960;" xml:space="preserve">
<g>
	<path style="fill:#95A9C6;" d="M99.545,382.728c-2.02-5.065-27.908-54.129-27.908-54.129l28.265-44.352l38.787,42.339
		L99.545,382.728z"/>
	<path style="fill:#AEC3E5;" d="M16.007,380.157c0,0,10.355-47.998,61.231-106.087s32.24,14.939,32.24,14.939l-27.241,52.863
		L16.007,380.157z"/>
	<path style="fill:#C8D4E8;" d="M305.096,288.338c0,0-12.331,3.901-32.161-9.303c-13.742-6.714-8.199-15.509-8.199-15.509
		s1.738-7.77,17.113,1.906c-1.936-10.518-35.909-38.519-28.573-51.831s30.146-37.086,46.379-28.656
		c16.233,8.43,46.567,61.224,45.353,72.222S305.096,288.338,305.096,288.338z"/>
	<path style="fill:#C8D4E8;" d="M317.015,387.054l-23.74-99.356c0,0,5.134-20.213,19.572-26.095
		c14.438-5.882,36.79-9.838,38.822-3.635c2.032,6.203,51.866,141.173,51.866,141.173l-31.278,23.639L317.015,387.054z"/>
	<path style="fill:#B5503C;" d="M351.67,257.969c-2.032-6.203-24.384-2.247-38.822,3.635c-14.438,5.882-19.572,26.095-19.572,26.095
		s-0.662,0.763-0.081,3.918s1.923,4.539,1.923,4.539s12.25-19.111,20.277-22.763s30.07-10.117,38.438-9.367
		C352.647,260.758,351.886,258.63,351.67,257.969z"/>
	<path style="fill:#ABBCD6;" d="M408.226,423.227l134.22-59.508c0,0,56.439-21.265,80.254-1.182
		c23.815,20.083,35.99,53.728,31.363,102.428c-4.628,48.7-19.39,142.764-19.39,142.764l-92.885-43.798L408.226,423.227z"/>
	<path style="fill:#B5503C;" d="M550.46,484.039c0,0,46.575-41.951,50.023-129.749c5.737-4.486,22.634,1.647,22.218,8.248
		s-5.488,70.607-57.06,130.125C553.102,489.533,550.46,484.039,550.46,484.039z"/>
	<path style="fill:#ABBCD6;" d="M605.178,636.54l86.18-25.109c0,0,20.358-7.554,32.258,9.829c11.9,17.383,7.455,40.495,7.455,40.495
		l-91.039,34.159L605.178,636.54z"/>
	<path style="fill:#8AA1BC;" d="M516.803,774.635c0,0-5.114,7.154-5.704,18.189c-0.59,11.035-6.666,44.495,0.04,52.438
		c6.706,7.943,28.639,17.891,80.838,16.585c52.199-1.306,103.809-8.185,103.809-8.185l0.703-29.411c0,0,1.892-13.46-30.618-26.267
		c-32.51-12.808-40.663-14.366-40.663-14.366s-59.873-9.519-64.099-8.74S516.803,774.635,516.803,774.635z"/>
	<path style="fill:#B3CBF2;" d="M517.015,766.293c0,0-5.114,7.154-5.704,18.189c-0.59,11.035-6.666,44.495,0.04,52.438
		c6.706,7.943,28.639,17.891,80.838,16.585c52.199-1.306,103.809-8.185,103.809-8.185l0.703-29.411c0,0,1.892-13.46-30.618-26.267
		s-40.663-14.366-40.663-14.366s-59.873-9.519-64.099-8.74S517.015,766.293,517.015,766.293z"/>
	<path style="fill:#D9E6FF;" d="M260.313,281.359c0,0,60.461,24.211,81.273,48.654c20.812,24.442,86.968,115.028,125.44,123.169
		s177.718,58.629,182.409,60.484c4.691,1.855,31.427,23.032,34.76,38.186c3.334,15.154-54.967,233.048-54.967,233.048
		s-29.77,12.549-60.534,7.882c-30.764-4.667-54.04-18.869-54.04-18.869L551.899,615.9c0,0-115.118,24.455-151.641,32.81
		s-83.313,2.288-113.078-26.487c-29.765-28.775-135.637-149.022-164.086-188.371c-16.57-22.918-31.026-94.691-20.46-111.138
		S260.313,281.359,260.313,281.359z"/>
	<g>
		<path style="fill:#B1C2DD;" d="M526.51,774.226c28.505-127.809,43.776-156.696,43.776-156.696l-18.706-0.276L515.234,771.45
			C518.471,772.548,522.203,773.506,526.51,774.226z"/>
		<path style="fill:#B1C2DD;" d="M545.921,617.171l-0.86-0.013l-0.076,0.212C545.309,617.301,545.619,617.235,545.921,617.171z"/>
	</g>
	<path style="fill:#B1C2DD;" d="M565.129,604.209c-25.328,6.283-183.453,11.492-207.036,10.396
		c-23.582-1.096-39.148-32.485-39.148-32.485l-55.365,15.576c9.849,10.612,18.049,19.161,23.6,24.527
		c29.765,28.775,76.555,34.842,113.078,26.487s151.641-32.81,151.641-32.81l-0.451,1.914
		C555.618,614.633,560.312,610.246,565.129,604.209z"/>
	<path style="fill:#B1C2DD;" d="M244.969,551.697c-15.964-10.654-131.351-172.272-131.351-172.272l-9.705,2.451
		c0.127,0.587,0.256,1.174,0.386,1.76l100.28,148.292c17.415,19.91,34.877,39.472,49.749,55.724l33.064,0.277
		c0,0,62.682-24.473,81.616-62.99C298.518,566.073,260.933,562.352,244.969,551.697z"/>
	<path style="fill:#83A2C6;" d="M100.005,361.317c0,0,77.871-22.246,100.493-25.114c28.975-6.756,60.807-16.966,104.743,17.9
		c33.917,24.748,44.273,122.344,30.375,153.177s-95.549,64.657-95.549,64.657l-12.464-13.92c0,0,83.544-41.883,87.061-52.318
		c3.516-10.434,5.029-99.974-21.522-137.724c-26.551-37.75-87.1-15.185-87.1-15.185L104.6,384.974
		C104.6,384.974,100.532,369.798,100.005,361.317z"/>
	<path style="fill:#DB6445;" d="M553.523,775.928c-12.367-1.871-35.602-9.477-37.002-9.937c0,0-1.694,2.244-2.116,3.617
		s0.249,4.304,0.249,4.304s23.276,14.202,54.04,18.869c30.764,4.667,60.534-7.882,60.534-7.882s2.242-2.588,2.478-4.262
		c0.235-1.675-0.249-4.304-0.249-4.304S566.278,777.858,553.523,775.928z"/>
	<path style="fill:#DB6445;" d="M406.967,416.391c0,0,2.801,77.237-46.236,115.083s-73.897,49.825-109.587,52.694
		c0.236,6.042,3.583,12.339,6.283,15.26c6.465,6.993,12.855,5.442,12.855,5.442s52.481-4.964,102.75-47.93
		s55.726-111.819,55.726-111.819L406.967,416.391z"/>
	<path style="fill:#DB6445;" d="M110.985,300.15c0,0-8.76-3.281-15.251,2.808s-0.348,15.832-0.348,15.832
		s35.744,28.762,91.49,18.499c71.523-13.167,84.481-57.964,84.481-57.964s3.433-4.982-4.137-10.657
		c-7.569-5.675-14.116-2.839-14.116-2.839l-69.573,29.664L110.985,300.15z"/>
	<circle style="fill:#CED9ED;" cx="167.653" cy="209.246" r="111.226"/>
	<path style="fill:#9DAEC6;" d="M277.041,189.108c7.252,39.391-7.213,77.753-34.905,102.764
		c-3.22,3.213-12.654,10.409-18.694,13.674c-29.008,10.778-44.667-62.462-87.815-87.142
		c-11.122-60.413,19.718-102.589,63.368-110.624C225.291,102.939,268.699,143.798,277.041,189.108z"/>
	<path style="fill:#E5EEF9;" d="M277.041,189.108c7.252,39.391-7.213,77.753-34.905,102.764
		c-3.22,3.213-12.654,10.409-18.694,13.674c-29.008,10.778-73.497-35.949-78.155-87.833
		c-11.122-60.413,26.181-99.972,56.157-105.491C231.422,106.703,268.699,143.798,277.041,189.108z"/>
	<linearGradient id="SVGID_1_" gradientUnits="userSpaceOnUse" x1="144.888" y1="209.8427" x2="278.8987" y2="209.8427">
		<stop  offset="0" style="stop-color:#130043"/>
		<stop  offset="1" style="stop-color:#0B214A"/>
	</linearGradient>
	<path style="fill:url(#SVGID_1_);" d="M277.041,189.108c7.252,39.391-7.213,77.753-34.905,102.764
		c-3.22,3.213-12.654,10.409-18.694,13.674c-29.008,10.778-68.018-41.631-76.48-87.597c-11.122-60.413,24.7-99.156,54.677-104.675
		S268.699,143.798,277.041,189.108z"/>
	<circle style="fill:#9DAEC6;" cx="146.685" cy="222.349" r="40.64"/>
	<circle style="fill:#CED9ED;" cx="148.505" cy="223.604" r="39.077"/>
	<circle style="fill:#B4C3D8;" cx="147.812" cy="223.126" r="26.771"/>
	<circle style="fill:#E2EAF7;" cx="148.505" cy="223.604" r="26.176"/>
	<path style="fill:#EEF3FF;" d="M456.628,269.141c0,0-6.796-21.585-5.425-28.906c1.371-7.321,4.694-18.807,11.004-19.969
		s8.08,20.262,8.08,20.262s6.784-25.173,7.532-32.923c0.748-7.75,15.102-27.248,33.051-21.309s35.537,21.732,30.414,41.161
		c-3.739,18.088-21.401,55.05-37.359,62.882C492.093,282.186,456.628,269.141,456.628,269.141z"/>
	<path style="fill:#EEF3FF;" d="M188.546,378.849c10.756-24.273,51.957-36.752,63.401-30.703s111.124,51.314,111.124,51.314
		s79.077-122.76,84.517-128.655s30.309-6.667,43.621,0.669c13.313,7.336,20.895,18.99,19.331,25.259
		c-1.565,6.269-82.695,173.993-82.695,173.993s-11.946,26.667-28.388,31.869c-16.442,5.202-100.597-5.948-188.194-59.419
		C179.559,424.545,188.546,378.849,188.546,378.849z"/>
	<path style="fill:#DB6445;" d="M491.209,271.474c-13.313-7.336-38.182-6.564-43.621-0.669c-0.483,0.523-1.547,1.97-3.082,4.165
		c0.001,0,22.362-2.682,35.169,3.318c12.807,6.001,28.886,23.238,28.886,23.238l0,0c1.155-2.602,1.848-4.268,1.979-4.793
		C512.104,290.464,504.521,278.811,491.209,271.474z"/>
	<path style="fill:#DB6445;" d="M358.945,397.585c0,0,27.67,44.922,33.562,106.056c9.277,5.283,15.316-5.639,15.316-5.639
		s-18.224-92.979-41.812-103.103c-2.878,4.764-2.941,4.561-2.941,4.561L358.945,397.585z"/>
	<path style="fill:#ED3D35;" d="M221.287,449.122c5.641,5.308,20.306,11.132,33.441,17.501
		c7.739-11.124,20.876-40.185,19.104-40.947c-1.771-0.761-35.524-15.753-35.524-15.753S229.597,436.896,221.287,449.122z"/>
	<path style="fill:#DB6445;" d="M544.929,617.382l6.97-1.483l-1.742,7.389c0,0,84.717-19.241,133.799-64.787
		c4.834-5.321-3.183-20.193-6.363-19.317c-3.181,0.875-46.21,30.002-68.811,40.144C586.181,589.47,544.929,617.382,544.929,617.382z
		"/>
	<path style="fill:#718DB5;" d="M242.815,587.98l-58.906,52.168L71.313,507.002c0,0-54.159-72.676-56.619-103.759
		c-2.745-34.687,20.35-54.857,29.525-58.177c9.176-3.32,40.358-25.917,45.228-8.326c4.87,17.59,28.986,65.892,28.986,65.892
		l129.724,178.928L242.815,587.98z"/>
	<path style="fill:#47637F;" d="M81.488,479.573l42.545-31.757c0,0-26.83-42.365-31.686-53.977
		c-4.333-10.36-24.357-5.303-34.155-2.412s-15.876,23.041-8.474,39.621C57.12,447.63,81.488,479.573,81.488,479.573z"/>
	<path style="fill:#5D799B;" d="M83.398,478.134l42.545-31.757c0,0-26.83-42.365-31.686-53.977
		c-4.333-10.36-24.357-5.303-34.155-2.412s-15.876,23.041-8.474,39.621C59.03,446.19,83.398,478.134,83.398,478.134z"/>
	
		<rect x="171.624" y="588.792" transform="matrix(0.7351 -0.678 0.678 0.7351 -347.963 297.2598)" style="fill:#5D799B;" width="69.516" height="10.16"/>
	
		<rect x="159.35" y="575.283" transform="matrix(0.7351 -0.678 0.678 0.7351 -342.0561 285.3593)" style="fill:#5D799B;" width="69.516" height="10.16"/>
	<circle style="fill:#5D799B;" cx="137.137" cy="468.785" r="5.347"/>
	<circle style="fill:#5D799B;" cx="151.334" cy="486.833" r="5.347"/>
	<circle style="fill:#5D799B;" cx="165.005" cy="504.977" r="5.347"/>
	<circle style="fill:#5D799B;" cx="178.677" cy="523.122" r="5.347"/>
</g>
</svg>
